<svg width="58" height="45" viewBox="0 0 58 45" fill="none" xmlns="http://www.w3.org/2000/svg">
<path d="M2.83264 16.2291L25.8768 19.239L23.0441 40.935L-8.54969e-07 37.9251L2.83264 16.2291ZM21.6262 0.233233L27.755 1.03373L26.1866 13.0462L20.5482 12.3097C19.2407 12.1389 18.269 12.2614 17.6329 12.6769C16.9969 13.0925 16.5722 14.1175 16.3588 15.7518L15.7027 20.7775L2.46455 19.0484L3.0887 14.2679C3.80352 8.79286 5.76169 4.93463 8.96318 2.69325C12.1753 0.370144 16.3964 -0.449861 21.6262 0.233233ZM32.1281 20.0555L55.1722 23.0654L52.3396 44.7614L29.2955 41.7515L32.1281 20.0555ZM50.9217 4.05963L57.0505 4.86013L55.4821 16.8726L49.8437 16.1361C48.5362 15.9653 47.5644 16.0877 46.9284 16.5033C46.2924 16.9189 45.8677 17.9439 45.6543 19.5782L44.9981 24.6039L31.76 22.8748L32.3842 18.0943C33.099 12.6193 35.0572 8.76103 38.2586 6.51964C41.4708 4.19654 45.6918 3.37653 50.9217 4.05963Z" fill="#161616"/>
</svg>
