<svg width="162" height="48" viewBox="0 0 162 48" fill="none" xmlns="http://www.w3.org/2000/svg">
<mask id="path-1-outside-1_171_379" maskUnits="userSpaceOnUse" x="25.1726" y="-0.00341797" width="136" height="29" fill="black">
<rect fill="white" x="25.1726" y="-0.00341797" width="136" height="29"/>
<path d="M43.9792 22.0379H26.1726V0.996582H43.9792V5.23626H30.8834V9.35031H43.5082V13.5586H30.8834V17.7983H43.9792V22.0379Z"/>
<path d="M53.4562 22.352C48.557 22.352 45.8562 19.1487 45.8562 14.1867C45.8562 9.16188 48.5256 5.98998 53.205 5.98998C56.9421 5.98998 58.8579 7.84287 59.3917 10.4809H59.6744V0.996582H64.3851V22.0379H59.9884V17.6726H59.7372C59.1405 20.7817 57.0678 22.352 53.4562 22.352ZM50.6297 14.1867C50.6297 17.0445 52.043 18.0495 55.0578 18.0495C58.0413 18.0495 59.6744 17.0131 59.6744 14.2809V14.0297C59.6744 11.2974 58.0727 10.2925 55.0578 10.2925C52.043 10.2925 50.6297 11.2974 50.6297 14.1867Z"/>
<path d="M71.9025 4.70237H67.1917V0.996582H71.9025V4.70237ZM71.9025 22.0379H67.1917V6.30403H71.9025V22.0379Z"/>
<path d="M81.717 22.352C76.8178 22.352 74.117 19.1487 74.117 14.1867C74.117 9.16188 76.7864 5.98998 81.4658 5.98998C85.203 5.98998 87.1187 7.84287 87.6526 10.4809H87.9352V0.996582H92.646V22.0379H88.2493V17.6726H87.998C87.4013 20.7817 85.3286 22.352 81.717 22.352ZM78.8906 14.1867C78.8906 17.0445 80.3038 18.0495 83.3187 18.0495C86.3021 18.0495 87.9352 17.0131 87.9352 14.2809V14.0297C87.9352 11.2974 86.3335 10.2925 83.3187 10.2925C80.3038 10.2925 78.8906 11.2974 78.8906 14.1867Z"/>
<path d="M100.163 4.70237H95.4525V0.996582H100.163V4.70237ZM100.163 22.0379H95.4525V6.30403H100.163V22.0379Z"/>
<path d="M111.328 22.352C105.958 22.352 102.346 19.1487 102.346 14.1867C102.346 9.16188 105.958 5.98998 111.328 5.98998C116.698 5.98998 120.31 9.16188 120.31 14.1867C120.31 19.1487 116.698 22.352 111.328 22.352ZM111.328 18.1751C114.5 18.1751 115.631 16.9503 115.631 14.1867C115.631 11.423 114.5 10.1354 111.328 10.1354C108.125 10.1354 107.026 11.423 107.026 14.1867C107.026 16.9503 108.125 18.1751 111.328 18.1751Z"/>
<path d="M127.259 22.0379H122.548V6.30403H126.913V11.1404H127.196C127.604 8.50238 129.488 5.98998 133.602 5.98998C137.905 5.98998 139.946 8.75362 139.946 12.2396V22.0379H135.236V13.8098C135.236 11.2974 134.199 10.2297 131.31 10.2297C128.326 10.2297 127.259 11.423 127.259 14.0925V22.0379Z"/>
<path d="M149.553 20.4363C144.873 20.4363 142.172 17.6412 142.172 13.2131C142.172 8.81643 145.03 5.98998 149.741 5.98998C152.944 5.98998 155.237 7.3718 155.739 10.104H155.991V6.30403H160.387V19.7454C160.387 25.2412 157.058 27.6908 151.437 27.6908C146.349 27.6908 143.146 25.4297 143.146 21.4726H147.857C147.857 23.2313 148.548 23.7652 151.751 23.7652C154.766 23.7652 155.677 23.1371 155.677 20.0594V16.5107H155.425C154.923 18.8346 153.07 20.4363 149.553 20.4363ZM146.915 13.2131C146.915 15.5371 148.234 16.385 151.186 16.385C154.2 16.385 155.677 15.5371 155.677 13.3702V13.0247C155.677 10.8892 154.169 10.0726 151.248 10.0726C148.234 10.0726 146.915 10.8892 146.915 13.2131Z"/>
</mask>
<path d="M43.9792 22.0379H26.1726V0.996582H43.9792V5.23626H30.8834V9.35031H43.5082V13.5586H30.8834V17.7983H43.9792V22.0379Z" fill="#161616"/>
<path d="M53.4562 22.352C48.557 22.352 45.8562 19.1487 45.8562 14.1867C45.8562 9.16188 48.5256 5.98998 53.205 5.98998C56.9421 5.98998 58.8579 7.84287 59.3917 10.4809H59.6744V0.996582H64.3851V22.0379H59.9884V17.6726H59.7372C59.1405 20.7817 57.0678 22.352 53.4562 22.352ZM50.6297 14.1867C50.6297 17.0445 52.043 18.0495 55.0578 18.0495C58.0413 18.0495 59.6744 17.0131 59.6744 14.2809V14.0297C59.6744 11.2974 58.0727 10.2925 55.0578 10.2925C52.043 10.2925 50.6297 11.2974 50.6297 14.1867Z" fill="#161616"/>
<path d="M71.9025 4.70237H67.1917V0.996582H71.9025V4.70237ZM71.9025 22.0379H67.1917V6.30403H71.9025V22.0379Z" fill="#161616"/>
<path d="M81.717 22.352C76.8178 22.352 74.117 19.1487 74.117 14.1867C74.117 9.16188 76.7864 5.98998 81.4658 5.98998C85.203 5.98998 87.1187 7.84287 87.6526 10.4809H87.9352V0.996582H92.646V22.0379H88.2493V17.6726H87.998C87.4013 20.7817 85.3286 22.352 81.717 22.352ZM78.8906 14.1867C78.8906 17.0445 80.3038 18.0495 83.3187 18.0495C86.3021 18.0495 87.9352 17.0131 87.9352 14.2809V14.0297C87.9352 11.2974 86.3335 10.2925 83.3187 10.2925C80.3038 10.2925 78.8906 11.2974 78.8906 14.1867Z" fill="#161616"/>
<path d="M100.163 4.70237H95.4525V0.996582H100.163V4.70237ZM100.163 22.0379H95.4525V6.30403H100.163V22.0379Z" fill="#161616"/>
<path d="M111.328 22.352C105.958 22.352 102.346 19.1487 102.346 14.1867C102.346 9.16188 105.958 5.98998 111.328 5.98998C116.698 5.98998 120.31 9.16188 120.31 14.1867C120.31 19.1487 116.698 22.352 111.328 22.352ZM111.328 18.1751C114.5 18.1751 115.631 16.9503 115.631 14.1867C115.631 11.423 114.5 10.1354 111.328 10.1354C108.125 10.1354 107.026 11.423 107.026 14.1867C107.026 16.9503 108.125 18.1751 111.328 18.1751Z" fill="#161616"/>
<path d="M127.259 22.0379H122.548V6.30403H126.913V11.1404H127.196C127.604 8.50238 129.488 5.98998 133.602 5.98998C137.905 5.98998 139.946 8.75362 139.946 12.2396V22.0379H135.236V13.8098C135.236 11.2974 134.199 10.2297 131.31 10.2297C128.326 10.2297 127.259 11.423 127.259 14.0925V22.0379Z" fill="#161616"/>
<path d="M149.553 20.4363C144.873 20.4363 142.172 17.6412 142.172 13.2131C142.172 8.81643 145.03 5.98998 149.741 5.98998C152.944 5.98998 155.237 7.3718 155.739 10.104H155.991V6.30403H160.387V19.7454C160.387 25.2412 157.058 27.6908 151.437 27.6908C146.349 27.6908 143.146 25.4297 143.146 21.4726H147.857C147.857 23.2313 148.548 23.7652 151.751 23.7652C154.766 23.7652 155.677 23.1371 155.677 20.0594V16.5107H155.425C154.923 18.8346 153.07 20.4363 149.553 20.4363ZM146.915 13.2131C146.915 15.5371 148.234 16.385 151.186 16.385C154.2 16.385 155.677 15.5371 155.677 13.3702V13.0247C155.677 10.8892 154.169 10.0726 151.248 10.0726C148.234 10.0726 146.915 10.8892 146.915 13.2131Z" fill="#161616"/>
<path d="M43.9792 22.0379H26.1726V0.996582H43.9792V5.23626H30.8834V9.35031H43.5082V13.5586H30.8834V17.7983H43.9792V22.0379Z" stroke="#161616" stroke-width="0.923077" mask="url(#path-1-outside-1_171_379)"/>
<path d="M53.4562 22.352C48.557 22.352 45.8562 19.1487 45.8562 14.1867C45.8562 9.16188 48.5256 5.98998 53.205 5.98998C56.9421 5.98998 58.8579 7.84287 59.3917 10.4809H59.6744V0.996582H64.3851V22.0379H59.9884V17.6726H59.7372C59.1405 20.7817 57.0678 22.352 53.4562 22.352ZM50.6297 14.1867C50.6297 17.0445 52.043 18.0495 55.0578 18.0495C58.0413 18.0495 59.6744 17.0131 59.6744 14.2809V14.0297C59.6744 11.2974 58.0727 10.2925 55.0578 10.2925C52.043 10.2925 50.6297 11.2974 50.6297 14.1867Z" stroke="#161616" stroke-width="0.923077" mask="url(#path-1-outside-1_171_379)"/>
<path d="M71.9025 4.70237H67.1917V0.996582H71.9025V4.70237ZM71.9025 22.0379H67.1917V6.30403H71.9025V22.0379Z" stroke="#161616" stroke-width="0.923077" mask="url(#path-1-outside-1_171_379)"/>
<path d="M81.717 22.352C76.8178 22.352 74.117 19.1487 74.117 14.1867C74.117 9.16188 76.7864 5.98998 81.4658 5.98998C85.203 5.98998 87.1187 7.84287 87.6526 10.4809H87.9352V0.996582H92.646V22.0379H88.2493V17.6726H87.998C87.4013 20.7817 85.3286 22.352 81.717 22.352ZM78.8906 14.1867C78.8906 17.0445 80.3038 18.0495 83.3187 18.0495C86.3021 18.0495 87.9352 17.0131 87.9352 14.2809V14.0297C87.9352 11.2974 86.3335 10.2925 83.3187 10.2925C80.3038 10.2925 78.8906 11.2974 78.8906 14.1867Z" stroke="#161616" stroke-width="0.923077" mask="url(#path-1-outside-1_171_379)"/>
<path d="M100.163 4.70237H95.4525V0.996582H100.163V4.70237ZM100.163 22.0379H95.4525V6.30403H100.163V22.0379Z" stroke="#161616" stroke-width="0.923077" mask="url(#path-1-outside-1_171_379)"/>
<path d="M111.328 22.352C105.958 22.352 102.346 19.1487 102.346 14.1867C102.346 9.16188 105.958 5.98998 111.328 5.98998C116.698 5.98998 120.31 9.16188 120.31 14.1867C120.31 19.1487 116.698 22.352 111.328 22.352ZM111.328 18.1751C114.5 18.1751 115.631 16.9503 115.631 14.1867C115.631 11.423 114.5 10.1354 111.328 10.1354C108.125 10.1354 107.026 11.423 107.026 14.1867C107.026 16.9503 108.125 18.1751 111.328 18.1751Z" stroke="#161616" stroke-width="0.923077" mask="url(#path-1-outside-1_171_379)"/>
<path d="M127.259 22.0379H122.548V6.30403H126.913V11.1404H127.196C127.604 8.50238 129.488 5.98998 133.602 5.98998C137.905 5.98998 139.946 8.75362 139.946 12.2396V22.0379H135.236V13.8098C135.236 11.2974 134.199 10.2297 131.31 10.2297C128.326 10.2297 127.259 11.423 127.259 14.0925V22.0379Z" stroke="#161616" stroke-width="0.923077" mask="url(#path-1-outside-1_171_379)"/>
<path d="M149.553 20.4363C144.873 20.4363 142.172 17.6412 142.172 13.2131C142.172 8.81643 145.03 5.98998 149.741 5.98998C152.944 5.98998 155.237 7.3718 155.739 10.104H155.991V6.30403H160.387V19.7454C160.387 25.2412 157.058 27.6908 151.437 27.6908C146.349 27.6908 143.146 25.4297 143.146 21.4726H147.857C147.857 23.2313 148.548 23.7652 151.751 23.7652C154.766 23.7652 155.677 23.1371 155.677 20.0594V16.5107H155.425C154.923 18.8346 153.07 20.4363 149.553 20.4363ZM146.915 13.2131C146.915 15.5371 148.234 16.385 151.186 16.385C154.2 16.385 155.677 15.5371 155.677 13.3702V13.0247C155.677 10.8892 154.169 10.0726 151.248 10.0726C148.234 10.0726 146.915 10.8892 146.915 13.2131Z" stroke="#161616" stroke-width="0.923077" mask="url(#path-1-outside-1_171_379)"/>
<path d="M124.437 30.3945C127.097 30.3946 129.092 31.0798 130.424 32.3213C131.758 33.5649 132.393 35.3366 132.393 37.4404V46.9043H127.535V43.6943C127.116 44.7104 126.423 45.5406 125.471 46.1387C124.349 46.8426 122.882 47.2177 121.108 47.2178C119.38 47.2178 117.966 46.8182 116.978 46.0547C115.984 45.2855 115.444 44.1641 115.444 42.7793C115.444 41.5526 115.903 40.5423 116.812 39.8008C117.712 39.0666 119.035 38.6108 120.739 38.4355L127.284 37.7646V37.377C127.284 36.385 127.062 35.8269 126.609 35.4951C126.133 35.1468 125.347 35.001 124.092 35.001C122.906 35.001 122.129 35.1601 121.649 35.4971C121.192 35.8188 120.962 36.3363 120.962 37.1885V37.5449H115.759V37.2207C115.759 35.2031 116.607 33.4869 118.126 32.2812C119.641 31.0791 121.808 30.3945 124.437 30.3945ZM147.266 30.709V39.167C147.266 40.4135 147.527 41.2366 148.097 41.7568C148.671 42.2823 149.611 42.5479 151.086 42.5479C152.603 42.5478 153.574 42.2519 154.169 41.6816C154.761 41.114 155.031 40.2259 155.031 38.916V30.709H160.204V46.9043H155.346V42.8262C155.041 43.8538 154.492 44.8223 153.647 45.5879C152.551 46.5819 150.976 47.2178 148.855 47.2178C146.593 47.2177 144.894 46.5188 143.763 45.3418C142.633 44.1666 142.093 42.541 142.093 40.7373V30.709H147.266ZM98.5106 25.4014V33.7549H103.401L108.923 25.5039L108.991 25.4014H115.213L114.956 25.7646L107.73 35.998L114.864 46.5439L115.108 46.9043H108.897L108.829 46.8018L103.464 38.8018H98.5106V46.9043H93.3387V25.4014H98.5106ZM139.806 25.4014V46.9043H134.634V25.4014H139.806ZM122.076 41.5322L122.069 41.5332C121.513 41.5796 121.156 41.6778 120.941 41.8262C120.748 41.9598 120.647 42.149 120.647 42.4648C120.647 42.6466 120.683 42.7869 120.744 42.8975C120.804 43.007 120.897 43.1007 121.034 43.1787C121.318 43.3402 121.778 43.4277 122.459 43.4277C124.051 43.4277 125.235 43.2385 126.029 42.8008C126.731 42.4143 127.144 41.825 127.258 40.9365L122.076 41.5322Z" fill="#161616" stroke="#161616" stroke-width="0.461538"/>
<rect x="0.314819" y="0.174805" width="22.5962" height="30.6023" rx="4.61538" fill="#CCCCCC"/>
<path d="M74.1606 34.4237C74.1606 36.9727 72.0943 39.0391 69.5453 39.0391H32.4268C30.0426 39.0391 28.1099 40.9718 28.1099 43.356C28.1099 45.7401 26.1771 47.6729 23.793 47.6729H4.93033C2.38132 47.6729 0.314941 45.6065 0.314941 43.0575V37.9582C0.314941 35.4092 2.38132 33.3428 4.93033 33.3428H21.3306C23.5553 33.3428 25.3589 31.5392 25.3589 29.3145C25.3589 27.0897 27.1624 25.2861 29.3872 25.2861H69.5453C72.0943 25.2861 74.1606 27.3525 74.1606 29.9015V34.4237Z" fill="#161616"/>
</svg>
