<svg width="74" height="59" viewBox="0 0 74 59" fill="none" xmlns="http://www.w3.org/2000/svg">
<path d="M1.27067 28.7402L33.273 27.1229L34.7676 56.6965L2.76529 58.3138L1.27067 28.7402ZM23.7159 2.39695L32.0022 1.97817L32.8976 19.6938L25.4685 20.0692C23.754 20.1559 22.4851 20.5542 21.6616 21.2642C20.9333 21.9695 20.6221 23.3698 20.728 25.4652L21.0096 31.037L1.43674 32.0262L1.17681 26.883C0.782094 19.0729 2.53624 13.1594 6.43923 9.14263C10.4327 5.02579 16.1916 2.77723 23.7159 2.39695ZM40.4164 26.7619L72.4188 25.1445L73.9134 54.7181L41.911 56.3355L40.4164 26.7619ZM62.8617 0.418572L71.148 -0.000209023L72.0433 17.7154L64.6142 18.0908C62.8998 18.1775 61.6308 18.5758 60.8073 19.2859C60.079 19.9911 59.7679 21.3914 59.8738 23.4868L60.1553 29.0586L40.5825 30.0478L40.3225 24.9046C39.9278 17.0945 41.682 11.181 45.585 7.16425C49.5784 3.0474 55.3373 0.798845 62.8617 0.418572Z" fill="#FEFEFE"/>
</svg>
