<svg width="119" height="117" viewBox="0 0 119 117" fill="none" xmlns="http://www.w3.org/2000/svg">
<mask id="path-1-outside-1_2140_825" maskUnits="userSpaceOnUse" x="-0.205078" y="-0.552734" width="119" height="118" fill="black">
<rect fill="white" x="-0.205078" y="-0.552734" width="119" height="118"/>
<path d="M76.4502 7.76074V7.76172L73.5586 38.3984L101.538 25.584L111.795 47.9766L83.8164 60.791L108.904 78.6143L94.6396 98.6943L69.5518 80.8711L66.6611 111.51L42.1396 109.196L45.0303 78.5576L17.0518 91.3721V91.373L6.79492 68.9805V68.9795L34.7725 56.1641L9.68652 38.3428V38.3418H9.68555L23.9502 18.2627L49.0371 36.085L51.9287 5.44727L76.4502 7.76074Z"/>
</mask>
<path d="M76.4502 7.76074V7.76172L73.5586 38.3984L101.538 25.584L111.795 47.9766L83.8164 60.791L108.904 78.6143L94.6396 98.6943L69.5518 80.8711L66.6611 111.51L42.1396 109.196L45.0303 78.5576L17.0518 91.3721V91.373L6.79492 68.9805V68.9795L34.7725 56.1641L9.68652 38.3428V38.3418H9.68555L23.9502 18.2627L49.0371 36.085L51.9287 5.44727L76.4502 7.76074Z" fill="#215FFB"/>
<path d="M76.4502 7.76074H81.4502V3.21026L76.9198 2.78285L76.4502 7.76074ZM76.4502 7.76172L81.4281 8.23155L81.4502 7.99715V7.76172H76.4502ZM73.5586 38.3984L68.5807 37.9286L67.767 46.5504L75.6406 42.9443L73.5586 38.3984ZM101.538 25.584L106.084 23.5018L104.002 18.9562L99.4561 21.0381L101.538 25.584ZM111.795 47.9766L113.877 52.5224L118.423 50.4403L116.341 45.8944L111.795 47.9766ZM83.8164 60.791L81.7343 56.2451L73.8606 59.8514L80.9206 64.8671L83.8164 60.791ZM108.904 78.6143L112.98 81.5099L115.876 77.4339L111.8 74.5382L108.904 78.6143ZM94.6396 98.6943L91.7439 102.77L95.8201 105.666L98.7158 101.59L94.6396 98.6943ZM69.5518 80.8711L72.4475 76.795L65.3873 71.7792L64.5739 80.4015L69.5518 80.8711ZM66.6611 111.51L66.1915 116.488L71.1694 116.957L71.639 111.979L66.6611 111.51ZM42.1396 109.196L37.1618 108.727L36.6921 113.705L41.67 114.174L42.1396 109.196ZM45.0303 78.5576L50.0082 79.0273L50.8216 70.4057L42.9482 74.0117L45.0303 78.5576ZM17.0518 91.3721L14.9697 86.8262L12.0518 88.1626V91.3721H17.0518ZM17.0518 91.373L12.5059 93.4552L22.0518 91.373H17.0518ZM6.79492 68.9805H1.79492V70.0711L2.2491 71.0627L6.79492 68.9805ZM6.79492 68.9795L4.71267 64.4337L1.79492 65.7702V68.9795H6.79492ZM34.7725 56.1641L36.8547 60.7099L44.7281 57.1034L37.6682 52.0879L34.7725 56.1641ZM9.68652 38.3428H4.68652V40.924L6.7908 42.4189L9.68652 38.3428ZM9.68652 38.3418H14.6865V33.3418H9.68652V38.3418ZM9.68555 38.3418L5.60945 35.446L0.00012207 43.3418H9.68555V38.3418ZM23.9502 18.2627L26.8459 14.1866L22.7698 11.2908L19.8741 15.3669L23.9502 18.2627ZM49.0371 36.085L46.1414 40.1611L53.2013 45.1766L54.015 36.5548L49.0371 36.085ZM51.9287 5.44727L52.3983 0.46937L47.4206 -0.00025177L46.9508 4.97745L51.9287 5.44727ZM76.4502 7.76074H71.4502V7.76172H76.4502H81.4502V7.76074H76.4502ZM76.4502 7.76172L71.4723 7.29189L68.5807 37.9286L73.5586 38.3984L78.5365 38.8683L81.4281 8.23155L76.4502 7.76172ZM73.5586 38.3984L75.6406 42.9443L103.62 30.1299L101.538 25.584L99.4561 21.0381L71.4766 33.8525L73.5586 38.3984ZM101.538 25.584L96.9923 27.6662L107.249 50.0588L111.795 47.9766L116.341 45.8944L106.084 23.5018L101.538 25.584ZM111.795 47.9766L109.713 43.4307L81.7343 56.2451L83.8164 60.791L85.8985 65.3369L113.877 52.5224L111.795 47.9766ZM83.8164 60.791L80.9206 64.8671L106.009 82.6903L108.904 78.6143L111.8 74.5382L86.7122 56.7149L83.8164 60.791ZM108.904 78.6143L104.828 75.7186L90.5635 95.7987L94.6396 98.6943L98.7158 101.59L112.98 81.5099L108.904 78.6143ZM94.6396 98.6943L97.5354 94.6183L72.4475 76.795L69.5518 80.8711L66.656 84.9472L91.7439 102.77L94.6396 98.6943ZM69.5518 80.8711L64.5739 80.4015L61.6832 111.04L66.6611 111.51L71.639 111.979L74.5297 81.3407L69.5518 80.8711ZM66.6611 111.51L67.1308 106.532L42.6093 104.218L42.1396 109.196L41.67 114.174L66.1915 116.488L66.6611 111.51ZM42.1396 109.196L47.1175 109.666L50.0082 79.0273L45.0303 78.5576L40.0524 78.088L37.1618 108.727L42.1396 109.196ZM45.0303 78.5576L42.9482 74.0117L14.9697 86.8262L17.0518 91.3721L19.1338 95.918L47.1123 83.1035L45.0303 78.5576ZM17.0518 91.3721H12.0518V91.373H17.0518H22.0518V91.3721H17.0518ZM17.0518 91.373L21.5976 89.2909L11.3407 66.8983L6.79492 68.9805L2.2491 71.0627L12.5059 93.4552L17.0518 91.373ZM6.79492 68.9805H11.7949V68.9795H6.79492H1.79492V68.9805H6.79492ZM6.79492 68.9795L8.87717 73.5253L36.8547 60.7099L34.7725 56.1641L32.6902 51.6183L4.71267 64.4337L6.79492 68.9795ZM34.7725 56.1641L37.6682 52.0879L12.5822 34.2666L9.68652 38.3428L6.7908 42.4189L31.8767 60.2402L34.7725 56.1641ZM9.68652 38.3428H14.6865V38.3418H9.68652H4.68652V38.3428H9.68652ZM9.68652 38.3418V33.3418H9.68555V38.3418V43.3418H9.68652V38.3418ZM9.68555 38.3418L13.7616 41.2376L28.0263 21.1585L23.9502 18.2627L19.8741 15.3669L5.60945 35.446L9.68555 38.3418ZM23.9502 18.2627L21.0544 22.3388L46.1414 40.1611L49.0371 36.085L51.9329 32.0089L26.8459 14.1866L23.9502 18.2627ZM49.0371 36.085L54.015 36.5548L56.9066 5.91708L51.9287 5.44727L46.9508 4.97745L44.0592 35.6151L49.0371 36.085ZM51.9287 5.44727L51.4591 10.4252L75.9806 12.7386L76.4502 7.76074L76.9198 2.78285L52.3983 0.46937L51.9287 5.44727Z" fill="#161616" mask="url(#path-1-outside-1_2140_825)"/>
</svg>
