<svg width="327" height="309" viewBox="0 0 327 309" fill="none" xmlns="http://www.w3.org/2000/svg">
<mask id="path-1-outside-1_2140_807" maskUnits="userSpaceOnUse" x="33.8458" y="45.0869" width="258.826" height="217.752" fill="black">
<rect fill="white" x="33.8458" y="45.0869" width="258.826" height="217.752"/>
<path d="M177.924 69.2211C190.706 71.3572 201.676 77.8376 209.576 86.898C216.98 84.8036 224.953 84.2728 233.046 85.6253C262.341 90.5211 282.121 118.239 277.225 147.534C273.126 172.062 253.028 189.918 229.4 192.206C219.335 213.307 196.204 226.114 171.995 222.068C161.431 220.302 152.105 215.568 144.727 208.863C133.091 224.657 113.204 233.491 92.5312 230.037C63.2362 225.141 43.4565 197.423 48.3523 168.128C51.0685 151.875 60.8089 138.55 73.9466 130.744C73.8436 127.284 74.0736 123.764 74.6657 120.22C79.5615 90.9254 107.279 71.1457 136.574 76.0414C137.843 76.2535 139.094 76.5091 140.326 76.805C151.11 69.9833 164.347 66.9522 177.924 69.2211Z"/>
</mask>
<path d="M177.924 69.2211C190.706 71.3572 201.676 77.8376 209.576 86.898C216.98 84.8036 224.953 84.2728 233.046 85.6253C262.341 90.5211 282.121 118.239 277.225 147.534C273.126 172.062 253.028 189.918 229.4 192.206C219.335 213.307 196.204 226.114 171.995 222.068C161.431 220.302 152.105 215.568 144.727 208.863C133.091 224.657 113.204 233.491 92.5312 230.037C63.2362 225.141 43.4565 197.423 48.3523 168.128C51.0685 151.875 60.8089 138.55 73.9466 130.744C73.8436 127.284 74.0736 123.764 74.6657 120.22C79.5615 90.9254 107.279 71.1457 136.574 76.0414C137.843 76.2535 139.094 76.5091 140.326 76.805C151.11 69.9833 164.347 66.9522 177.924 69.2211Z" fill="#FEF71C"/>
<path d="M177.924 69.2211L178.587 65.2559L178.587 65.2559L177.924 69.2211ZM209.576 86.898L206.546 89.54L208.22 91.4596L210.67 90.7664L209.576 86.898ZM233.046 85.6253L233.709 81.6601L233.709 81.6601L233.046 85.6253ZM277.225 147.534L281.191 148.196L281.191 148.196L277.225 147.534ZM229.4 192.206L229.013 188.204L226.75 188.423L225.771 190.475L229.4 192.206ZM171.995 222.068L171.333 226.033L171.333 226.033L171.995 222.068ZM144.727 208.863L147.43 205.888L144.133 202.891L141.49 206.479L144.727 208.863ZM92.5312 230.037L91.8686 234.002L91.8686 234.002L92.5312 230.037ZM48.3523 168.128L44.3871 167.466L44.3871 167.466L48.3523 168.128ZM73.9466 130.744L76.0002 134.2L78.0355 132.991L77.9651 130.624L73.9466 130.744ZM74.6657 120.22L70.7005 119.558L70.7005 119.558L74.6657 120.22ZM136.574 76.0414L137.237 72.0762L137.237 72.0762L136.574 76.0414ZM140.326 76.805L139.387 80.714L141.039 81.1109L142.475 80.2026L140.326 76.805ZM177.924 69.2211L177.261 73.1863C189.091 75.1633 199.236 81.1557 206.546 89.54L209.576 86.898L212.606 84.256C204.117 74.5194 192.32 67.551 178.587 65.2559L177.924 69.2211ZM209.576 86.898L210.67 90.7664C217.515 88.8302 224.888 88.3379 232.384 89.5905L233.046 85.6253L233.709 81.6601C225.018 80.2077 216.446 80.777 208.482 83.0296L209.576 86.898ZM233.046 85.6253L232.384 89.5905C259.489 94.1203 277.79 119.766 273.26 146.871L277.225 147.534L281.191 148.196C286.452 116.711 265.194 86.9219 233.709 81.6601L233.046 85.6253ZM277.225 147.534L273.26 146.871C269.468 169.56 250.876 186.087 229.013 188.204L229.4 192.206L229.787 196.207C255.18 193.748 276.784 174.564 281.191 148.196L277.225 147.534ZM229.4 192.206L225.771 190.475C216.458 210.001 195.051 221.845 172.658 218.103L171.995 222.068L171.333 226.033C197.357 230.382 222.212 216.613 233.029 193.937L229.4 192.206ZM171.995 222.068L172.658 218.103C162.878 216.468 154.255 212.09 147.43 205.888L144.727 208.863L142.023 211.838C149.955 219.047 159.984 224.137 171.333 226.033L171.995 222.068ZM144.727 208.863L141.49 206.479C130.717 221.101 112.316 229.267 93.1939 226.071L92.5312 230.037L91.8686 234.002C114.093 237.716 135.464 228.213 147.963 211.248L144.727 208.863ZM92.5312 230.037L93.1939 226.071C66.0888 221.542 47.7876 195.896 52.3175 168.791L48.3523 168.128L44.3871 167.466C39.1253 198.951 60.3836 228.74 91.8686 234.002L92.5312 230.037ZM48.3523 168.128L52.3175 168.791C54.8305 153.754 63.8364 141.427 76.0002 134.2L73.9466 130.744L71.8931 127.288C57.7814 135.673 47.3065 149.996 44.3871 167.466L48.3523 168.128ZM73.9466 130.744L77.9651 130.624C77.8697 127.424 78.0823 124.166 78.6309 120.883L74.6657 120.22L70.7005 119.558C70.0648 123.362 69.8175 127.144 69.9282 130.864L73.9466 130.744ZM74.6657 120.22L78.6309 120.883C83.1608 93.7779 108.806 75.4768 135.911 80.0066L136.574 76.0414L137.237 72.0762C105.752 66.8145 75.9623 88.0728 70.7005 119.558L74.6657 120.22ZM136.574 76.0414L135.911 80.0066C137.086 80.2029 138.245 80.4396 139.387 80.714L140.326 76.805L141.265 72.8961C139.943 72.5785 138.6 72.3041 137.237 72.0762L136.574 76.0414ZM140.326 76.805L142.475 80.2026C152.456 73.8889 164.697 71.0866 177.261 73.1863L177.924 69.2211L178.587 65.2559C163.998 62.8178 149.764 66.0778 138.177 73.4075L140.326 76.805Z" fill="#111111" mask="url(#path-1-outside-1_2140_807)"/>
</svg>
