<svg width="257" height="305" viewBox="0 0 257 305" fill="none" xmlns="http://www.w3.org/2000/svg">
<mask id="path-1-outside-1_298_1613" maskUnits="userSpaceOnUse" x="44.7089" y="68.57" width="230.034" height="167.032" fill="black">
<rect fill="white" x="44.7089" y="68.57" width="230.034" height="167.032"/>
<path d="M152.672 81.9381C163.897 80.8624 174.623 83.5549 183.627 88.9877C190.551 84.8213 198.702 82.0462 207.574 81.1959C235.618 78.5083 260.243 96.063 262.576 120.406C264.53 140.787 250.235 159.462 229.071 166.578C224.749 185.582 206.491 200.936 183.314 203.158C173.198 204.127 163.527 202.462 155.187 198.796C148.181 213.934 131.982 225.402 112.196 227.299C84.1517 229.986 59.5262 212.431 57.1932 188.088C55.8885 174.474 61.8343 161.621 72.2334 152.465C75.8765 137.297 89.8347 124.497 108.348 119.666C113.75 99.5801 130.959 84.0191 152.672 81.9381Z"/>
</mask>
<path d="M152.672 81.9381C163.897 80.8624 174.623 83.5549 183.627 88.9877C190.551 84.8213 198.702 82.0462 207.574 81.1959C235.618 78.5083 260.243 96.063 262.576 120.406C264.53 140.787 250.235 159.462 229.071 166.578C224.749 185.582 206.491 200.936 183.314 203.158C173.198 204.127 163.527 202.462 155.187 198.796C148.181 213.934 131.982 225.402 112.196 227.299C84.1517 229.986 59.5262 212.431 57.1932 188.088C55.8885 174.474 61.8343 161.621 72.2334 152.465C75.8765 137.297 89.8347 124.497 108.348 119.666C113.75 99.5801 130.959 84.0191 152.672 81.9381Z" fill="#FEF71C"/>
<path d="M152.672 81.9381L152.405 79.1562L152.405 79.1562L152.672 81.9381ZM183.627 88.9877L182.183 91.3806L183.625 92.2505L185.068 91.3823L183.627 88.9877ZM207.574 81.1959L207.307 78.414L207.307 78.414L207.574 81.1959ZM262.576 120.406L265.358 120.139L265.358 120.139L262.576 120.406ZM229.071 166.578L228.18 163.93L226.693 164.429L226.345 165.959L229.071 166.578ZM183.314 203.158L183.58 205.939L183.58 205.939L183.314 203.158ZM155.187 198.796L156.312 196.237L153.802 195.134L152.651 197.622L155.187 198.796ZM112.196 227.299L112.462 230.081L112.462 230.081L112.196 227.299ZM57.1932 188.088L54.4113 188.354L54.4113 188.354L57.1932 188.088ZM72.2334 152.465L74.0801 154.563L74.7441 153.978L74.9507 153.118L72.2334 152.465ZM108.348 119.666L109.054 122.37L110.625 121.96L111.047 120.392L108.348 119.666ZM152.672 81.9381L152.938 84.72C163.543 83.7037 173.672 86.2455 182.183 91.3806L183.627 88.9877L185.071 86.5949C175.573 80.8643 164.25 78.0211 152.405 79.1562L152.672 81.9381ZM183.627 88.9877L185.068 91.3823C191.633 87.4322 199.382 84.7885 207.84 83.9778L207.574 81.1959L207.307 78.414C198.022 79.3039 189.47 82.2104 182.186 86.5931L183.627 88.9877ZM207.574 81.1959L207.84 83.9778C234.73 81.4008 257.643 98.2227 259.794 120.672L262.576 120.406L265.358 120.139C262.843 93.9033 236.505 75.6159 207.307 78.414L207.574 81.1959ZM262.576 120.406L259.794 120.672C261.598 139.488 248.392 157.133 228.18 163.93L229.071 166.578L229.961 169.227C252.077 161.791 267.462 142.086 265.358 120.139L262.576 120.406ZM229.071 166.578L226.345 165.959C222.331 183.614 205.212 198.251 183.047 200.376L183.314 203.158L183.58 205.939C207.771 203.621 227.168 187.551 231.796 167.198L229.071 166.578ZM183.314 203.158L183.047 200.376C173.402 201.3 164.211 199.71 156.312 196.237L155.187 198.796L154.062 201.354C162.844 205.214 172.994 206.954 183.58 205.939L183.314 203.158ZM155.187 198.796L152.651 197.622C146.102 211.773 130.825 222.706 111.929 224.517L112.196 227.299L112.462 230.081C133.139 228.099 150.26 216.095 157.723 199.969L155.187 198.796ZM112.196 227.299L111.929 224.517C85.0388 227.094 62.1267 210.271 59.9751 187.821L57.1932 188.088L54.4113 188.354C56.9257 214.59 83.2646 232.879 112.462 230.081L112.196 227.299ZM57.1932 188.088L59.9751 187.821C58.7683 175.228 64.2507 163.217 74.0801 154.563L72.2334 152.465L70.3866 150.368C59.418 160.025 53.0088 173.719 54.4113 188.354L57.1932 188.088ZM72.2334 152.465L74.9507 153.118C78.2985 139.179 91.2894 127.005 109.054 122.37L108.348 119.666L107.642 116.962C88.3799 121.988 73.4545 135.414 69.516 151.812L72.2334 152.465ZM108.348 119.666L111.047 120.392C116.16 101.379 132.439 86.6847 152.938 84.72L152.672 81.9381L152.405 79.1562C129.479 81.3535 111.339 97.7814 105.649 118.94L108.348 119.666Z" fill="#111111" mask="url(#path-1-outside-1_298_1613)"/>
<circle cx="54.2343" cy="143.832" r="8.47189" transform="rotate(-23.9628 54.2343 143.832)" fill="#FEF71C" stroke="#111111" stroke-width="3"/>
<circle cx="37.3195" cy="138.981" r="4.40221" transform="rotate(-23.9628 37.3195 138.981)" fill="#FEF71C" stroke="#111111" stroke-width="3"/>
<circle cx="26.413" cy="136.124" r="2.63824" transform="rotate(-23.9628 26.413 136.124)" fill="#FEF71C" stroke="#111111" stroke-width="3"/>
</svg>
