<svg width="409" height="385" viewBox="0 0 409 385" fill="none" xmlns="http://www.w3.org/2000/svg">
<mask id="path-1-outside-1_298_1628" maskUnits="userSpaceOnUse" x="45.6197" y="57.4779" width="320.162" height="269.23" fill="black">
<rect fill="white" x="45.6197" y="57.4779" width="320.162" height="269.23"/>
<path d="M223.589 86.0914C239.486 88.7482 253.129 96.8093 262.954 108.078C272.164 105.473 282.08 104.812 292.146 106.494C328.581 112.583 353.181 147.056 347.092 183.49C341.993 213.997 316.997 236.206 287.61 239.051C275.092 265.295 246.324 281.222 216.215 276.19C203.076 273.994 191.477 268.106 182.301 259.768C167.829 279.411 143.095 290.399 117.383 286.102C80.9484 280.013 56.3478 245.54 62.4368 209.105C65.815 188.891 77.9294 172.32 94.2685 162.611C94.1402 158.307 94.4276 153.928 95.1642 149.52C101.253 113.085 135.725 88.4841 172.16 94.573C173.739 94.8368 175.295 95.1551 176.827 95.5232C190.24 87.0394 206.704 83.2696 223.589 86.0914Z"/>
</mask>
<path d="M223.589 86.0914C239.486 88.7482 253.129 96.8093 262.954 108.078C272.164 105.473 282.08 104.812 292.146 106.494C328.581 112.583 353.181 147.056 347.092 183.49C341.993 213.997 316.997 236.206 287.61 239.051C275.092 265.295 246.324 281.222 216.215 276.19C203.076 273.994 191.477 268.106 182.301 259.768C167.829 279.411 143.095 290.399 117.383 286.102C80.9484 280.013 56.3478 245.54 62.4368 209.105C65.815 188.891 77.9294 172.32 94.2685 162.611C94.1402 158.307 94.4276 153.928 95.1642 149.52C101.253 113.085 135.725 88.4841 172.16 94.573C173.739 94.8368 175.295 95.1551 176.827 95.5232C190.24 87.0394 206.704 83.2696 223.589 86.0914Z" fill="#FEF71C"/>
<path d="M223.589 86.0914L224.413 81.1598L224.413 81.1598L223.589 86.0914ZM262.954 108.078L259.186 111.364L261.267 113.752L264.315 112.889L262.954 108.078ZM292.146 106.494L292.97 101.563L292.97 101.563L292.146 106.494ZM347.092 183.49L352.023 184.314L352.023 184.314L347.092 183.49ZM287.61 239.051L287.128 234.074L284.314 234.347L283.097 236.898L287.61 239.051ZM216.215 276.19L215.391 281.122L216.215 276.19ZM182.301 259.768L185.663 256.067L181.562 252.341L178.275 256.802L182.301 259.768ZM117.383 286.102L116.559 291.034L116.559 291.034L117.383 286.102ZM62.4368 209.105L57.5052 208.281L57.5052 208.281L62.4368 209.105ZM94.2685 162.611L96.8227 166.909L99.3541 165.405L99.2663 162.462L94.2685 162.611ZM95.1642 149.52L90.2326 148.696L90.2326 148.696L95.1642 149.52ZM172.16 94.573L172.984 89.6414L172.984 89.6414L172.16 94.573ZM176.827 95.5232L175.659 100.385L177.714 100.879L179.5 99.7489L176.827 95.5232ZM223.589 86.0914L222.765 91.023C237.478 93.4819 250.094 100.936 259.186 111.364L262.954 108.078L266.723 104.792C256.165 92.6828 241.494 84.0145 224.413 81.1598L223.589 86.0914ZM262.954 108.078L264.315 112.889C272.829 110.481 282 109.868 291.322 111.426L292.146 106.494L292.97 101.563C282.16 99.7562 271.498 100.465 261.593 103.267L262.954 108.078ZM292.146 106.494L291.322 111.426C325.033 117.06 347.794 148.955 342.16 182.666L347.092 183.49L352.023 184.314C358.567 145.156 332.129 108.107 292.97 101.563L292.146 106.494ZM347.092 183.49L342.16 182.666C337.444 210.885 314.32 231.441 287.128 234.074L287.61 239.051L288.092 244.028C319.673 240.97 346.543 217.109 352.023 184.314L347.092 183.49ZM287.61 239.051L283.097 236.898C271.513 261.183 244.89 275.913 217.039 271.258L216.215 276.19L215.391 281.122C247.758 286.531 278.67 269.406 292.123 241.204L287.61 239.051ZM216.215 276.19L217.039 271.258C204.876 269.226 194.151 263.78 185.663 256.067L182.301 259.768L178.938 263.468C188.803 272.433 201.277 278.763 215.391 281.122L216.215 276.19ZM182.301 259.768L178.275 256.802C164.877 274.989 141.99 285.145 118.207 281.171L117.383 286.102L116.559 291.034C144.201 295.653 170.781 283.834 186.326 262.733L182.301 259.768ZM117.383 286.102L118.207 281.171C84.4962 275.537 61.7345 243.641 67.3684 209.929L62.4368 209.105L57.5052 208.281C50.961 247.44 77.4006 284.49 116.559 291.034L117.383 286.102ZM62.4368 209.105L67.3684 209.929C70.4938 191.228 81.6947 175.898 96.8227 166.909L94.2685 162.611L91.7144 158.312C74.1641 168.741 61.1361 186.555 57.5052 208.281L62.4368 209.105ZM94.2685 162.611L99.2663 162.462C99.1476 158.482 99.4132 154.429 100.096 150.344L95.1642 149.52L90.2326 148.696C89.4419 153.427 89.1327 158.132 89.2708 162.76L94.2685 162.611ZM95.1642 149.52L100.096 150.344C105.73 116.633 137.625 93.8709 171.336 99.5046L172.16 94.573L172.984 89.6414C133.826 83.0973 96.7768 109.537 90.2326 148.696L95.1642 149.52ZM172.16 94.573L171.336 99.5046C172.796 99.7487 174.238 100.043 175.659 100.385L176.827 95.5232L177.995 90.6616C176.352 90.2667 174.681 89.9249 172.984 89.6414L172.16 94.573ZM176.827 95.5232L179.5 99.7489C191.914 91.8968 207.139 88.4116 222.765 91.023L223.589 86.0914L224.413 81.1598C206.269 78.1275 188.566 82.182 174.154 91.2976L176.827 95.5232Z" fill="#111111" mask="url(#path-1-outside-1_298_1628)"/>
<circle cx="66.3011" cy="135.708" r="20.1204" transform="rotate(-9.3975 66.3011 135.708)" fill="#FEF71C" stroke="#111111" stroke-width="4.17435"/>
<circle cx="34.0429" cy="116.667" r="11.4577" transform="rotate(-9.3975 34.0429 116.667)" fill="#FEF71C" stroke="#111111" stroke-width="4.17435"/>
<circle cx="13.1067" cy="104.941" r="7.7029" transform="rotate(-9.3975 13.1067 104.941)" fill="#FEF71C" stroke="#111111" stroke-width="4.17435"/>
</svg>
